<?xml version="1.0" standalone="no"?>
<!DOCTYPE svg PUBLIC "-//W3C//DTD SVG 20010904//EN"
 "http://www.w3.org/TR/2001/REC-SVG-20010904/DTD/svg10.dtd">
<svg version="1.0" xmlns="http://www.w3.org/2000/svg"
 width="310.000000pt" height="310.000000pt" viewBox="0 0 310.000000 310.000000"
 preserveAspectRatio="xMidYMid meet">
<metadata>
Created by potrace 1.11, written by Peter Selinger 2001-2013
</metadata>
<g transform="translate(0.000000,310.000000) scale(0.100000,-0.100000)"
fill="#000000" stroke="none">
<path d="M1341 3080 c-322 -45 -626 -192 -860 -415 -242 -231 -397 -516 -457
-840 -26 -136 -26 -421 -1 -550 123 -627 584 -1097 1214 -1237 84 -19 129 -22
313 -22 184 0 229 3 313 22 293 65 548 199 756 397 242 231 397 516 457 840
26 136 26 421 1 550 -123 625 -587 1099 -1209 1236 -106 23 -417 34 -527 19z
m1177 -1100 c2 -263 -1 -438 -9 -500 -41 -345 -232 -662 -534 -887 -94 -70
-253 -164 -344 -202 -89 -38 -90 -37 -261 51 -156 80 -286 174 -405 293 -157
157 -254 312 -321 510 -57 171 -64 247 -64 716 0 229 3 419 7 422 3 4 439 6
967 5 l961 -3 3 -405z"/>
<path d="M712 2248 c-15 -15 -17 -634 -2 -758 30 -244 129 -457 300 -643 110
-121 309 -259 469 -327 l70 -30 53 21 c84 32 210 104 295 167 184 137 295 266
383 447 63 128 93 228 110 365 15 124 13 743 -2 758 -17 17 -1659 17 -1676 0z
m900 -225 c26 -26 48 -52 48 -57 0 -13 -91 -106 -104 -106 -12 0 -106 91 -106
103 0 12 91 107 104 107 5 0 32 -21 58 -47z m-624 -199 c37 -9 72 -22 79 -28
12 -11 243 -845 243 -878 0 -15 -10 -18 -60 -18 -53 0 -62 3 -70 23 -14 31
-270 892 -270 906 0 14 -2 14 78 -5z m1222 -11 c0 -5 -63 -210 -138 -458
l-138 -450 -64 -3 c-34 -2 -67 1 -71 5 -8 8 245 869 260 885 4 4 31 12 61 17
73 12 90 12 90 4z m-551 -406 c50 -159 91 -293 91 -298 0 -5 -24 -9 -53 -9
l-53 0 -39 120 c-21 66 -41 120 -46 120 -4 0 -25 -53 -46 -117 l-40 -118 -51
-3 c-41 -2 -52 0 -52 12 0 15 177 562 187 579 3 5 6 7 8 5 1 -2 44 -133 94
-291z"/>
</g>
</svg>
